<mxfile host="app.diagrams.net" modified="2023-08-21T08:39:26.104Z" agent="Mozilla/5.0 (Windows NT 10.0; Win64; x64; rv:109.0) Gecko/20100101 Firefox/116.0" version="21.6.6" etag="KRfmfG17MqAXIm1tJX2V" type="github">
  <diagram name="Page-1" id="VzNa3Q9IAzTyuxaPNgD6">
    <mxGraphModel>
      <root>
        <mxCell id="0" />
        <mxCell id="1" parent="0" />
      </root>
    </mxGraphModel>
  </diagram>
</mxfile>
